<?xml version="1.0" encoding="UTF-8"?>
<svg xmlns="http://www.w3.org/2000/svg" version="1.1" xmlns:xlink="http://www.w3.org/1999/xlink" viewBox="0 0 1579 958.3">
  <defs>
    <style>
      .cls-1 {
        fill: url(#Adsız_degrade_49-9);
      }
      .cls-2 {
        fill: url(#Adsız_degrade_49-2);
      }
      .cls-3 {
        fill: url(#Adsız_degrade_49-3);
      }
      .cls-4 {
        fill: url(#Adsız_degrade_49-11);
      }
      .cls-5 {
        fill: url(#Adsız_degrade_49-8);
      }
      .cls-6 {
        fill: url(#Adsız_degrade_49-5);
      }
      .cls-7 {
        fill: url(#Adsız_degrade_49-4);
      }
      .cls-8 {
        fill: url(#Adsız_degrade_49-6);
      }
      .cls-9 {
        fill: url(#Adsız_degrade_61);
      }
      .cls-10 {
        fill: url(#Adsız_degrade_49-10);
      }
      .cls-11 {
        fill: url(#Adsız_degrade_49-7);
      }
      .cls-12 {
        fill: url(#Adsız_degrade_49);
      }
      .cls-13 {
        fill: url(#Adsız_degrade_61-2);
      }
      .cls-14 {
        fill: url(#Adsız_degrade_49-12);
      }
    </style>
    <linearGradient id="Adsız_degrade_61" data-name="Adsız degrade 61" x1="967" y1="422.4" x2="613.1" y2="68.5" gradientUnits="userSpaceOnUse">
      <stop offset="0" stop-color="#f4d447"/>
      <stop offset=".6" stop-color="#a88c1a"/>
      <stop offset="1" stop-color="#f4d447"/>
    </linearGradient>
    <linearGradient id="Adsız_degrade_61-2" data-name="Adsız degrade 61" x1="890.5" y1="427.6" x2="698.3" y2="235.5" xlink:href="#Adsız_degrade_61"/>
    <linearGradient id="Adsız_degrade_49" data-name="Adsız degrade 49" x1="537.8" y1="714.6" x2="537.8" y2="509.8" gradientUnits="userSpaceOnUse">
      <stop offset="0" stop-color="#fff"/>
      <stop offset=".6" stop-color="#999"/>
      <stop offset="1" stop-color="#fff"/>
    </linearGradient>
    <linearGradient id="Adsız_degrade_49-2" data-name="Adsız degrade 49" x1="114" x2="114" xlink:href="#Adsız_degrade_49"/>
    <linearGradient id="Adsız_degrade_49-3" data-name="Adsız degrade 49" x1="1091.3" x2="1091.3" xlink:href="#Adsız_degrade_49"/>
    <linearGradient id="Adsız_degrade_49-4" data-name="Adsız degrade 49" x1="326.3" y1="714.7" x2="326.3" y2="553" xlink:href="#Adsız_degrade_49"/>
    <linearGradient id="Adsız_degrade_49-5" data-name="Adsız degrade 49" x1="749.2" y1="717.4" x2="749.2" y2="553.1" xlink:href="#Adsız_degrade_49"/>
    <linearGradient id="Adsız_degrade_49-6" data-name="Adsız degrade 49" x1="926" y1="714.7" x2="926" y2="551.6" xlink:href="#Adsız_degrade_49"/>
    <linearGradient id="Adsız_degrade_49-7" data-name="Adsız degrade 49" x1="1300.1" y1="717" x2="1300.1" y2="551.8" xlink:href="#Adsız_degrade_49"/>
    <linearGradient id="Adsız_degrade_49-8" data-name="Adsız degrade 49" x1="1483.9" x2="1483.9" y2="553" xlink:href="#Adsız_degrade_49"/>
    <linearGradient id="Adsız_degrade_49-9" data-name="Adsız degrade 49" x1="563.2" y1="958.3" x2="563.2" y2="772.2" xlink:href="#Adsız_degrade_49"/>
    <linearGradient id="Adsız_degrade_49-10" data-name="Adsız degrade 49" x1="731.7" y1="957.9" x2="731.7" y2="771.6" xlink:href="#Adsız_degrade_49"/>
    <linearGradient id="Adsız_degrade_49-11" data-name="Adsız degrade 49" x1="922" y1="958" x2="922" y2="770.5" xlink:href="#Adsız_degrade_49"/>
    <linearGradient id="Adsız_degrade_49-12" data-name="Adsız degrade 49" x1="1066.2" y1="957.9" x2="1066.2" y2="772.2" xlink:href="#Adsız_degrade_49"/>
  </defs>
  <!-- Generator: Adobe Illustrator 28.6.0, SVG Export Plug-In . SVG Version: 1.2.0 Build 709)  -->
  <g>
    <g id="katman_1">
      <g>
        <g>
          <path class="cls-9" d="M661.3,97c-59.1,53.2-76.6,128.9-52.2,203.9,3,8.2,6.5,19.8,14.6,23.8,8.1,2.6,14.2-7.2,18.2-13,5.4-8.3,10.4-16.8,15.6-25.2,9.8-15.9,19.9-31.6,29.7-47.5,7-10.6,21.6-36.6,36.6-25.1,6.4,5.9,6.1,19.5,4.4,28.1-8.3,41.4-17,82.6-24.9,124.1-3.6,18.7-7.9,37.2-11.8,55.8-2.6,9.8-3.7,25.4-15.3,28-4,.7-8.7-.8-13.1-3-83.4-49.8-131.8-153.2-116.5-249.4,8.4-53,37.3-101.6,75.8-138.3,23.1-23.1,52.5-38.6,83.7-48,67.5-20.6,144.3-13.2,204.2,25.1,30.4,20,56.8,46.1,78.2,75.5,29.2,41.8,47.4,91.7,46.2,143.1.7,68.9-22.6,135.2-80.5,176.2-10.2,6.3-31.2,24.7-42.6,17-3.1-2.1-5.4-5.8-7-10.1-16.9-60.6-28.7-122.7-44.1-183.7-2.1-9.4-4.7-19.5-3-29.1,1.3-9.1,10.1-16.1,18.9-11.5,5.7,2.8,10.1,9,13.5,14.4,13.5,23.8,25.8,48.4,38,72.9,5.3,8.6,17.2,44.3,30.3,33.1,6.8-6.3,10.5-17.3,13.8-25.8,5.6-15.3,8.9-30.5,10.3-46.6,8.3-87.2-53-173.2-135.8-199.1-63.4-20.6-133.2-7.2-185.1,34.2h-.1Z"/>
          <path class="cls-13" d="M776.3,477.5c-20.8-1.4-39.7-6-38.9-30,4.6-66.1,16-131.3,22.6-197.2,2.4-22.4,5.2-44.7,8.2-67,1.7-13.4,5.9-31.7,21.7-33.5,17.1-1,23.4,18.8,25.3,32.7,1.9,12.1,3.5,24.3,5.3,36.4,9,55.7,16.7,111.6,26,167.2,2.8,16.4,4.5,32.9,7.2,49.3,1,6.4,2.3,13,2.1,19.4.1,16.8-18.8,20.4-32.5,21.5-17,1.2-33,1.8-46.8,1.2h-.2Z"/>
        </g>
        <g>
          <path class="cls-12" d="M524.7,581.5l-37.1,94.9-6.1,16c-.4,2.6-.9,4.7-1.3,6.4-.4,1.7.1,3.1,1.6,4.3,1.4,1.1,2.6,2,3.4,2.6s2.4,1,4.7,1.3c2.3.3,4,.4,5.1.4h5v7.3h-76.2v-7.3c3.7,0,6.6-.1,8.6-.4,2-.3,4.4-1,7.3-2.1s5.4-3.1,7.6-6c2.1-2.9,4.1-6.8,5.8-11.8l68-165.8c2.8-6.8,9.5-11.3,16.9-11.3h3.1c5.9,0,11.2,3.6,13.5,9l69.8,169.7h.4c3.7,8.5,7.3,13.8,10.8,15.8,3.6,2,9,3,16.2,3v7.3h-99v-7.3c2.1,0,3.8,0,5-.1,1.1-.1,2.4-.4,3.8-.9,1.4-.4,2.4-1.1,2.9-2.1.4-1,.6-2.4.4-4.4-.1-2-.7-4.4-1.7-7.4l-38.5-110.9M524.7,581.5"/>
          <path class="cls-2" d="M100.9,581.5l-37.1,94.9-6.1,16c-.4,2.6-.9,4.7-1.3,6.4-.4,1.7.1,3.1,1.6,4.3,1.4,1.1,2.6,2,3.4,2.6s2.4,1,4.7,1.3c2.3.3,4,.4,5.1.4h5v7.3H0v-7.3c3.7,0,6.6-.1,8.6-.4,2-.3,4.4-1,7.3-2.1s5.4-3.1,7.6-6c2.1-2.9,4.1-6.8,5.8-11.8l68-165.8c2.8-6.8,9.5-11.3,16.9-11.3h3.1c5.9,0,11.2,3.6,13.5,9l69.8,169.7h.4c3.7,8.5,7.3,13.8,10.8,15.8,3.6,2,9,3,16.2,3v7.3h-99v-7.3c2.1,0,3.8,0,5-.1,1.1-.1,2.4-.4,3.8-.9,1.4-.4,2.4-1.1,2.9-2.1.4-1,.6-2.4.4-4.4-.1-2-.7-4.4-1.7-7.4l-38.5-110.9M100.9,581.5"/>
          <path class="cls-3" d="M1078.2,581.5l-37.1,94.9-6.1,16c-.4,2.6-.9,4.7-1.3,6.4-.4,1.7.1,3.1,1.6,4.3,1.4,1.1,2.6,2,3.4,2.6s2.4,1,4.7,1.3c2.3.3,4,.4,5.1.4h5v7.3h-76.2v-7.3c3.7,0,6.6-.1,8.6-.4,2-.3,4.4-1,7.3-2.1s5.4-3.1,7.6-6c2.1-2.9,4.1-6.8,5.8-11.8l68-165.8c2.8-6.8,9.5-11.3,16.9-11.3h3.1c5.9,0,11.2,3.6,13.5,9l69.8,169.7h.4c3.7,8.5,7.3,13.8,10.8,15.8,3.6,2,9,3,16.2,3v7.3h-99v-7.3c2.1,0,3.8,0,5-.1,1.1-.1,2.4-.4,3.8-.9,1.4-.4,2.4-1.1,2.9-2.1.4-1,.6-2.4.4-4.4-.1-2-.7-4.4-1.7-7.4l-38.5-110.9M1078.2,581.5"/>
          <path class="cls-7" d="M295.9,692.8c0,3,.5,5.6,1.2,7.8s1.8,3.7,2.9,4.7c1.1,1,2.7,1.8,4.7,2.4s3.7.9,5.1,1c1.4.1,3.5.1,6.3.1v5.7h-85v-5.7c2.8,0,5,0,6.3-.1,1.4-.1,3-.5,5.1-1,2-.6,3.6-1.4,4.7-2.4,1.1-1,2.1-2.6,2.9-4.7s1.2-4.7,1.2-7.8v-117.7c0-3-.5-5.6-1.2-7.8s-1.7-3.7-2.8-4.8c-1.1-1.1-2.7-1.9-4.7-2.5-2-.6-3.7-.9-5.1-1s-3.4-.1-6.2-.1v-5.9h85v5.9c-2.8,0-4.8,0-6.2.1s-3,.5-5.1,1c-2,.6-3.6,1.4-4.7,2.5-1.1,1.1-2,2.7-2.8,4.8s-1.2,4.7-1.2,7.8v117.7h-.5ZM394.7,695.5c6.7,8.9,15.6,13.4,26.7,13.4v5.7h-71.8c-.5-6.7-3.2-14.3-8.1-23.1l-39.5-64.4v-6.2l46.3-52c2.6-3.5,3-6.1,1.2-7.7-1.8-1.6-4.7-2.4-8.9-2.4v-5.9h74.1v5.9c-16,0-30.9,6.8-44.5,20.3l-32.6,34.2.5.5c3.3.1,6.4,2.1,9.5,6l47.1,75.7h0Z"/>
          <path class="cls-6" d="M842,553.1v5.9c-2.8,0-4.8,0-6.2.1s-3,.5-5.1,1c-2,.6-3.6,1.4-4.7,2.5-1.1,1.1-2.1,2.7-3,4.8s-1.4,4.7-1.4,7.8v142.2h-6.4l-116.5-102.1v77.5c0,3,.5,5.6,1.2,7.8.8,2.1,1.8,3.7,2.9,4.7,1.1,1,2.7,1.8,4.7,2.4,2,.6,3.7.9,5.1,1s3.5.1,6.3.1v5.7h-62.6v-5.7c2.8,0,5,0,6.3-.1s3-.5,5.1-1c2-.6,3.6-1.4,4.7-2.4,1.1-1,2.1-2.6,2.9-4.7.8-2.1,1.2-4.7,1.2-7.8v-117.7c0-3-.5-5.6-1.2-7.8-.8-2.1-1.7-3.7-2.8-4.8-1.1-1.1-2.7-1.9-4.7-2.5-2-.6-3.7-.9-5.1-1s-3.4-.1-6.2-.1v-5.9h38.3l108.1,94.9v-2.9c-2-3-3-6.1-3-9.1v-60.8c0-3-.5-5.6-1.4-7.8s-1.8-3.7-2.8-4.8c-1-1.1-2.6-1.9-4.7-2.5-2.1-.6-3.8-.9-5.2-1-1.4-.1-3.4-.1-6.2-.1v-5.9h62.3Z"/>
          <path class="cls-8" d="M924.9,644.4c9.2-2.6,16.3-7.6,21.3-14.9,5-7.3,7.4-16.1,7.4-26.3,0-24.7-9.2-37-27.8-37s-8.7.6-12.7,1.6v.8c2.1,2.1,3.3,5.4,3.3,9.7v114.6c0,3,.5,5.6,1.2,7.8s1.8,3.7,2.9,4.7c1.1,1,2.7,1.8,4.7,2.4,2,.6,3.7.9,5.1,1s3.5.1,6.3.1v5.7h-85v-5.7c2.8,0,5,0,6.3-.1s3-.5,5.1-1c2-.6,3.6-1.4,4.7-2.4,1.1-1,2.1-2.6,2.9-4.7s1.2-4.7,1.2-7.8v-117.7c0-3-.5-5.6-1.2-7.8s-1.7-3.7-2.8-4.8c-1.1-1.1-2.7-1.9-4.7-2.5-2-.6-3.7-.9-5.1-1-1.4-.1-3.4-.1-6.2-.1v-5.9h20.1c4.3,0,13.6-.2,28.2-.8,14.5-.6,25.8-.8,33.9-.8,44.2,0,66.3,15.2,66.3,45.8s-6.2,28.7-18.7,38.5c-12.5,9.8-31.3,14.8-56.6,14.9v-6.5h-.1Z"/>
          <path class="cls-11" d="M1393.1,714.7c-5.7,1.5-13.6,2.3-23.7,2.3s-22-1.6-30.8-4.7c-8.8-3.2-16.2-8-22.4-14.7s-11.4-14.3-15.6-23c-4.2-8.7-8-19.4-11.5-32-3.9.5-7.4.7-10.4.7v-6.2c12.2-3.3,20.9-7.7,26-13.2,5.2-5.5,7.8-13.4,7.8-23.7,0-22.8-9.6-34.2-28.9-34.2s-11.6.5-15.9,1.4v.8c2.1,2.1,3.3,5.4,3.3,9.7v114.9c0,3.8.5,7,1.5,9.4,1,2.4,2.6,3.9,4.7,4.8,2.1.9,3.9,1.5,5.4,1.7,1.5.2,3.6.3,6.4.3v5.7h-82.6v-5.7c2.8,0,5,0,6.3-.1s3-.5,5.1-1c2-.6,3.6-1.4,4.7-2.4,1.1-1,2.1-2.6,2.9-4.7s1.2-4.7,1.2-7.8v-117.7c0-3-.5-5.6-1.2-7.8s-1.7-3.7-2.8-4.8c-1.1-1.1-2.7-1.9-4.7-2.5-2-.6-3.7-.9-5.1-1-1.4-.1-3.4-.1-6.2-.1v-5.9h20.1c4.3,0,14.9-.2,31.8-.7,16.9-.5,28.3-.7,34.2-.7,43.2,0,64.8,13.3,64.8,39.9s-3.4,18.9-10,26.8-15.8,13.9-27.4,17.9l.5,1.1c4.2-.1,7,.1,8.5.8,1.5.7,2.6,1.9,3.4,3.8,11.4,21.5,20.4,36.5,27.1,45,11.3,14.7,22,22,32.1,22s1.5-.1,2-.2l-.6,5.7Z"/>
          <path class="cls-5" d="M1453.5,692.7c0,3,.5,5.6,1.2,7.8s1.8,3.7,2.9,4.7c1.1,1,2.7,1.8,4.7,2.4,2,.6,3.7.9,5.1,1,1.4.1,3.5.1,6.3.1v5.7h-85v-5.7c2.8,0,5,0,6.3-.1,1.4-.1,3-.5,5.1-1,2-.6,3.6-1.4,4.7-2.4,1.1-1,2.1-2.6,2.9-4.7s1.2-4.7,1.2-7.8v-117.7c0-3-.5-5.6-1.2-7.8s-1.7-3.7-2.8-4.8c-1.1-1.1-2.7-1.9-4.7-2.5-2-.6-3.7-.9-5.1-1s-3.4-.1-6.2-.1v-5.9h85v5.9c-2.8,0-4.8,0-6.2.1s-3,.5-5.1,1c-2,.6-3.6,1.4-4.7,2.5-1.1,1.1-2,2.7-2.8,4.8s-1.2,4.7-1.2,7.8v117.7h-.5ZM1552.3,695.4c6.7,8.9,15.6,13.4,26.7,13.4v5.7h-71.8c-.5-6.7-3.2-14.3-8.1-23.1l-39.5-64.4v-6.2l46.3-52c2.6-3.5,3-6.1,1.2-7.7-1.8-1.6-4.7-2.4-8.9-2.4v-5.9h74.1v5.9c-16,0-30.9,6.8-44.5,20.3l-32.6,34.2.5.5c3.3.1,6.4,2.1,9.5,6l47.1,75.7h0Z"/>
        </g>
        <g>
          <path class="cls-1" d="M662.5,772.7v6.7c-14,0-25,6.2-33.2,18.5l-40.7,68.9v66.4c0,3.5.5,6.5,1.6,8.9,1,2.5,2.2,4.3,3.5,5.4,1.3,1.2,3.1,2.1,5.4,2.7s4.3,1,5.8,1.2c1.6.1,4,.1,7.3.1v6.6h-97.7v-6.6c3.2,0,5.7,0,7.3-.1,1.6-.1,3.5-.5,5.8-1.2,2.3-.6,4.1-1.6,5.4-2.7,1.3-1.2,2.5-3,3.4-5.4.9-2.5,1.4-5.4,1.4-8.9v-58.1l-46.7-78.5c-4.8-7.6-8.8-12.4-12.2-14.4-3.4-1.9-8.4-3-15.2-3v-6.7h98v6.7c-2.2,0-4.1.1-5.8.3-1.7.1-3.5.5-5.4,1.2-1.9.6-3.4,1.6-4.4,2.9-1,1.3-1.4,3.1-1.2,5.4.3,2.3,1.3,5.2,3.2,8.6l29.9,49.4.9-1.3c-1.2-2.9-.4-6.6,2.3-11.4l20.7-36.7c2.7-3.9,4.3-7.1,4.7-9.8.4-2.7-.3-4.7-2.1-5.8-1.8-1.2-3.8-1.9-5.8-2.3-2.1-.4-4.8-.6-8.2-.6v-6.7l71.8.5Z"/>
          <path class="cls-10" d="M810.7,934c3.4,7.9,6.6,12.7,9.8,14.5,3.2,1.8,8.2,2.7,14.8,2.7v6.6h-90.1v-6.6c1.9,0,3.5,0,4.5-.1,1-.1,2.2-.4,3.5-.8,1.3-.4,2.2-1,2.6-1.9.4-.9.5-2.2.4-4-.1-1.8-.6-4-1.6-6.7l-5.3-13.7c-1.7-4.9-2.5-9.1-2.3-12.4l-.3-.9h-57.4l-.3.9c.5,1.6-.5,5.4-3.1,11.7l-5.6,14.5c-.4,2.3-.8,4.3-1.2,5.8-.4,1.6.1,2.9,1.4,3.9,1.3,1,2.3,1.8,3.1,2.3.8.5,2.2.9,4.3,1.2,2.1.3,3.6.4,4.7.4h4.5v6.6h-69.3v-6.6c3.4,0,6-.1,7.8-.4,1.8-.3,4-.9,6.6-1.9,2.6-1,4.9-2.9,6.9-5.4,1.9-2.6,3.8-6.2,5.3-10.8l66.1-161.1h22.8l66.9,162.5h.4ZM741,890.2l-.3-.8c-1.9-2.2-4-5.8-6.2-10.9l-14.8-41.7-16.5,41.7c-2.3,5.4-4.3,9.1-5.8,10.9l-.3.8h43.8Z"/>
          <path class="cls-4" d="M920.8,877.1c10.6-3,18.8-8.7,24.5-17.1,5.7-8.4,8.6-18.5,8.6-30.2,0-28.4-10.6-42.5-32-42.5s-10,.6-14.6,1.8v.9c2.5,2.5,3.8,6.2,3.8,11.1v131.8c0,3.5.5,6.5,1.4,8.9.9,2.5,2.1,4.3,3.4,5.4,1.3,1.2,3.1,2.1,5.4,2.7,2.3.6,4.3,1,5.8,1.2,1.6.1,4,.1,7.3.1v6.6h-97.7v-6.6c3.2,0,5.7,0,7.3-.1,1.6-.1,3.5-.5,5.8-1.2,2.3-.6,4.1-1.6,5.4-2.7,1.3-1.2,2.5-3,3.4-5.4.9-2.5,1.4-5.4,1.4-8.9v-135.3c0-3.5-.5-6.5-1.4-8.9-.9-2.5-1.9-4.3-3.2-5.6s-3.1-2.2-5.4-2.9c-2.3-.6-4.3-1-5.8-1.2-1.6-.1-3.9-.1-7.1-.1v-6.7h23.1c4.9,0,15.7-.3,32.4-.9s29.7-.9,39-.9c50.8,0,76.2,17.5,76.2,52.6s-7.1,33-21.5,44.3-36,17-65.1,17.1v-7.5h-.1Z"/>
          <path class="cls-14" d="M1114.6,778.9c-3.2,0-5.6,0-7.1.1-1.6.1-3.5.5-5.8,1.2s-4.1,1.6-5.4,2.9-2.3,3.1-3.2,5.6-1.4,5.4-1.4,8.9v135.3c0,3.5.5,6.5,1.4,8.9.9,2.5,2.1,4.3,3.4,5.4,1.3,1.2,3.1,2.1,5.4,2.7,2.3.6,4.3,1,5.8,1.2,1.6.1,4,.1,7.3.1v6.6h-97.7v-6.6c3.2,0,5.7,0,7.3-.1,1.6-.1,3.5-.5,5.8-1.2,2.3-.6,4.1-1.6,5.4-2.7,1.3-1.2,2.5-3,3.4-5.4.9-2.5,1.4-5.4,1.4-8.9v-135.3c0-3.5-.5-6.5-1.4-8.9-.9-2.5-1.9-4.3-3.2-5.6s-3.1-2.2-5.4-2.9c-2.3-.6-4.3-1-5.8-1.2-1.6-.1-3.9-.1-7.1-.1v-6.7h97.7v6.7h-.5Z"/>
        </g>
      </g>
    </g>
  </g>
</svg>