<?xml version="1.0" encoding="UTF-8"?>
<svg xmlns="http://www.w3.org/2000/svg" version="1.1" xmlns:xlink="http://www.w3.org/1999/xlink" viewBox="0 0 2156.2 477.8">
  <defs>
    <style>
      .cls-1 {
        fill: url(#Adsız_degrade_6);
      }
      .cls-2 {
        fill: url(#Adsız_degrade_3);
      }
      .cls-3 {
        fill: url(#Adsız_degrade_4);
      }
      .cls-4 {
        fill: url(#Adsız_degrade_9);
      }
      .cls-5 {
        fill: url(#Adsız_degrade_11);
      }
      .cls-6 {
        fill: url(#Adsız_degrade_13);
      }
      .cls-7 {
        fill: url(#Adsız_degrade_12);
      }
      .cls-8 {
        fill: url(#Adsız_degrade_14);
      }
      .cls-9 {
        fill: url(#Adsız_degrade);
      }
      .cls-10 {
        fill: url(#Adsız_degrade_7);
      }
      .cls-11 {
        fill: url(#Adsız_degrade_8);
      }
      .cls-12 {
        fill: url(#Adsız_degrade_10);
      }
      .cls-13 {
        fill: url(#Adsız_degrade_5);
      }
      .cls-14 {
        fill: url(#Adsız_degrade_2);
      }
    </style>
    <linearGradient id="Adsız_degrade" data-name="Adsız degrade" x1="422.9" y1="-1504.4" x2="69.1" y2="-1150.7" gradientTransform="translate(0 -1082.1) scale(1 -1)" gradientUnits="userSpaceOnUse">
      <stop offset="0" stop-color="#f4d447"/>
      <stop offset=".6" stop-color="#a88c1a"/>
      <stop offset="1" stop-color="#f4d447"/>
    </linearGradient>
    <linearGradient id="Adsız_degrade_2" data-name="Adsız degrade 2" x1="346.7" y1="-1509.7" x2="154.5" y2="-1317.7" gradientTransform="translate(0 -1082.1) scale(1 -1)" gradientUnits="userSpaceOnUse">
      <stop offset="0" stop-color="#f4d447"/>
      <stop offset=".6" stop-color="#a88c1a"/>
      <stop offset="1" stop-color="#f4d447"/>
    </linearGradient>
    <linearGradient id="Adsız_degrade_3" data-name="Adsız degrade 3" x1="1115" y1="-1301.7" x2="1115" y2="-1096.9" gradientTransform="translate(0 -1082.1) scale(1 -1)" gradientUnits="userSpaceOnUse">
      <stop offset="0" stop-color="#fff"/>
      <stop offset=".6" stop-color="#999"/>
      <stop offset="1" stop-color="#fff"/>
    </linearGradient>
    <linearGradient id="Adsız_degrade_4" data-name="Adsız degrade 4" x1="691.2" y1="-1301.7" x2="691.2" y2="-1096.9" gradientTransform="translate(0 -1082.1) scale(1 -1)" gradientUnits="userSpaceOnUse">
      <stop offset="0" stop-color="#fff"/>
      <stop offset=".6" stop-color="#999"/>
      <stop offset="1" stop-color="#fff"/>
    </linearGradient>
    <linearGradient id="Adsız_degrade_5" data-name="Adsız degrade 5" x1="1668.5" y1="-1301.7" x2="1668.5" y2="-1096.9" gradientTransform="translate(0 -1082.1) scale(1 -1)" gradientUnits="userSpaceOnUse">
      <stop offset="0" stop-color="#fff"/>
      <stop offset=".6" stop-color="#999"/>
      <stop offset="1" stop-color="#fff"/>
    </linearGradient>
    <linearGradient id="Adsız_degrade_6" data-name="Adsız degrade 6" x1="903.5" y1="-1301.5" x2="903.5" y2="-1139.8" gradientTransform="translate(0 -1082.1) scale(1 -1)" gradientUnits="userSpaceOnUse">
      <stop offset="0" stop-color="#fff"/>
      <stop offset=".6" stop-color="#999"/>
      <stop offset="1" stop-color="#fff"/>
    </linearGradient>
    <linearGradient id="Adsız_degrade_7" data-name="Adsız degrade 7" x1="1326.4" y1="-1304.3" x2="1326.4" y2="-1139.9" gradientTransform="translate(0 -1082.1) scale(1 -1)" gradientUnits="userSpaceOnUse">
      <stop offset="0" stop-color="#fff"/>
      <stop offset=".6" stop-color="#999"/>
      <stop offset="1" stop-color="#fff"/>
    </linearGradient>
    <linearGradient id="Adsız_degrade_8" data-name="Adsız degrade 8" x1="1503.2" y1="-1301.5" x2="1503.2" y2="-1138.4" gradientTransform="translate(0 -1082.1) scale(1 -1)" gradientUnits="userSpaceOnUse">
      <stop offset="0" stop-color="#fff"/>
      <stop offset=".6" stop-color="#999"/>
      <stop offset="1" stop-color="#fff"/>
    </linearGradient>
    <linearGradient id="Adsız_degrade_9" data-name="Adsız degrade 9" x1="1878.7" y1="-1303.9" x2="1878.7" y2="-1138.7" gradientTransform="translate(0 -1082.1) scale(1 -1)" gradientUnits="userSpaceOnUse">
      <stop offset="0" stop-color="#fff"/>
      <stop offset=".6" stop-color="#999"/>
      <stop offset="1" stop-color="#fff"/>
    </linearGradient>
    <linearGradient id="Adsız_degrade_10" data-name="Adsız degrade 10" x1="2061.1" y1="-1301.4" x2="2061.1" y2="-1139.7" gradientTransform="translate(0 -1082.1) scale(1 -1)" gradientUnits="userSpaceOnUse">
      <stop offset="0" stop-color="#fff"/>
      <stop offset=".6" stop-color="#999"/>
      <stop offset="1" stop-color="#fff"/>
    </linearGradient>
    <linearGradient id="Adsız_degrade_11" data-name="Adsız degrade 11" x1="1174.9" y1="-1545.2" x2="1174.9" y2="-1387.5" gradientTransform="translate(0 -1082.1) scale(1 -1)" gradientUnits="userSpaceOnUse">
      <stop offset="0" stop-color="#fff"/>
      <stop offset=".6" stop-color="#999"/>
      <stop offset="1" stop-color="#fff"/>
    </linearGradient>
    <linearGradient id="Adsız_degrade_12" data-name="Adsız degrade 12" x1="1317.6" y1="-1544.9" x2="1317.6" y2="-1387.2" gradientTransform="translate(0 -1082.1) scale(1 -1)" gradientUnits="userSpaceOnUse">
      <stop offset="0" stop-color="#fff"/>
      <stop offset=".6" stop-color="#999"/>
      <stop offset="1" stop-color="#fff"/>
    </linearGradient>
    <linearGradient id="Adsız_degrade_13" data-name="Adsız degrade 13" x1="1479.1" y1="-1544.9" x2="1479.1" y2="-1386.1" gradientTransform="translate(0 -1082.1) scale(1 -1)" gradientUnits="userSpaceOnUse">
      <stop offset="0" stop-color="#fff"/>
      <stop offset=".6" stop-color="#999"/>
      <stop offset="1" stop-color="#fff"/>
    </linearGradient>
    <linearGradient id="Adsız_degrade_14" data-name="Adsız degrade 14" x1="1601.2" y1="-1544.7" x2="1601.2" y2="-1387.5" gradientTransform="translate(0 -1082.1) scale(1 -1)" gradientUnits="userSpaceOnUse">
      <stop offset="0" stop-color="#fff"/>
      <stop offset=".6" stop-color="#999"/>
      <stop offset="1" stop-color="#fff"/>
    </linearGradient>
  </defs>
  <!-- Generator: Adobe Illustrator 28.6.0, SVG Export Plug-In . SVG Version: 1.2.0 Build 709)  -->
  <g>
    <g id="katman_1">
      <g>
        <g>
          <path class="cls-9" d="M117.5,97c-59.1,53.2-76.6,128.9-52.2,203.9,3,8.2,6.5,19.8,14.6,23.8,8.1,2.6,14.2-7.2,18.2-13,5.4-8.3,10.4-16.8,15.6-25.2,9.8-15.9,19.9-31.6,29.7-47.5,7-10.6,21.6-36.6,36.6-25.1,6.4,5.9,6.1,19.5,4.4,28.1-8.3,41.4-17,82.6-24.9,124.1-3.6,18.7-7.9,37.2-11.8,55.8-2.6,9.8-3.7,25.4-15.3,28-4,.7-8.7-.8-13.1-3C35.9,397.1-12.5,293.7,2.8,197.5c8.4-53,37.3-101.6,75.8-138.3,23.1-23.1,52.5-38.6,83.7-48,67.5-20.6,144.3-13.2,204.2,25.1,30.4,20,56.8,46.1,78.2,75.5,29.2,41.8,47.4,91.7,46.2,143.1.7,68.9-22.6,135.2-80.5,176.2-10.2,6.3-31.2,24.7-42.6,17-3.1-2.1-5.4-5.8-7-10.1-16.9-60.6-28.7-122.7-44.1-183.7-2.1-9.4-4.7-19.5-3-29.1,1.3-9.1,10.1-16.1,18.9-11.5,5.7,2.8,10.1,9,13.5,14.4,13.5,23.8,25.8,48.4,38,72.9,5.3,8.6,17.2,44.3,30.3,33.1,6.8-6.3,10.5-17.3,13.8-25.8,5.6-15.3,8.9-30.5,10.3-46.6,8.3-87.2-53-173.2-135.8-199.1-63.4-20.6-133.2-7.2-185.1,34.2h0v.2Z"/>
          <path class="cls-14" d="M232.5,477.5c-20.8-1.4-39.7-6-38.9-30,4.6-66.1,16-131.3,22.6-197.2,2.4-22.4,5.2-44.7,8.2-67,1.7-13.4,5.9-31.7,21.7-33.5,17.1-1,23.4,18.8,25.3,32.7,1.9,12.1,3.5,24.3,5.3,36.4,9,55.7,16.7,111.6,26,167.2,2.8,16.4,4.5,32.9,7.2,49.3,1,6.4,2.3,13,2.1,19.4,0,16.8-18.8,20.4-32.5,21.5-17,1.2-33,1.8-46.8,1.2h-.2,0Z"/>
        </g>
        <g>
          <g>
            <path class="cls-2" d="M1101.9,86.3l-37.1,94.9-6.1,16c-.4,2.6-.9,4.7-1.3,6.4s.1,3.1,1.6,4.3c1.4,1.1,2.6,2,3.4,2.6s2.4,1,4.7,1.3c2.3.3,4,.4,5.1.4h5v7.3h-76.2v-7.3c3.7,0,6.6,0,8.6-.4,2-.3,4.4-1,7.3-2.1s5.4-3.1,7.6-6c2.1-2.9,4.1-6.8,5.8-11.8l68-165.8c2.8-6.8,9.5-11.3,16.9-11.3h3.1c5.9,0,11.2,3.6,13.5,9l69.8,169.7h.4c3.7,8.5,7.3,13.8,10.8,15.8,3.6,2,9,3,16.2,3v7.3h-99v-7.3c2.1,0,3.8,0,5,0,1.1,0,2.4-.4,3.8-.9,1.4-.4,2.4-1.1,2.9-2.1.4-1,.6-2.4.4-4.4,0-2-.7-4.4-1.7-7.4l-38.5-110.9"/>
            <path class="cls-3" d="M678.1,86.3l-37.1,94.9-6.1,16c-.4,2.6-.9,4.7-1.3,6.4-.4,1.7,0,3.1,1.6,4.3,1.4,1.1,2.6,2,3.4,2.6s2.4,1,4.7,1.3c2.3.3,4,.4,5.1.4h5v7.3h-76.2v-7.3c3.7,0,6.6,0,8.6-.4,2-.3,4.4-1,7.3-2.1s5.4-3.1,7.6-6c2.1-2.9,4.1-6.8,5.8-11.8l68-165.8c2.8-6.8,9.5-11.3,16.9-11.3h3.1c5.9,0,11.2,3.6,13.5,9l69.8,169.7h.4c3.7,8.5,7.3,13.8,10.8,15.8,3.6,2,9,3,16.2,3v7.3h-99v-7.3c2.1,0,3.8,0,5,0,1.1,0,2.4-.4,3.8-.9,1.4-.4,2.4-1.1,2.9-2.1.4-1,.6-2.4.4-4.4-.1-2-.7-4.4-1.7-7.4l-38.5-110.9"/>
            <path class="cls-13" d="M1655.4,86.3l-37.1,94.9-6.1,16c-.4,2.6-.9,4.7-1.3,6.4s0,3.1,1.6,4.3c1.4,1.1,2.6,2,3.4,2.6s2.4,1,4.7,1.3c2.3.3,4,.4,5.1.4h5v7.3h-76.2v-7.3c3.7,0,6.6,0,8.6-.4,2-.3,4.4-1,7.3-2.1s5.4-3.1,7.6-6c2.1-2.9,4.1-6.8,5.8-11.8l68-165.8c2.8-6.8,9.5-11.3,16.9-11.3h3.1c5.9,0,11.2,3.6,13.5,9l69.8,169.7h.4c3.7,8.5,7.3,13.8,10.8,15.8,3.6,2,9,3,16.2,3v7.3h-99v-7.3c2.1,0,3.8,0,5,0,1.1,0,2.4-.4,3.8-.9,1.4-.4,2.4-1.1,2.9-2.1.4-1,.6-2.4.4-4.4,0-2-.7-4.4-1.7-7.4l-38.5-110.9"/>
            <path class="cls-1" d="M873.1,197.6c0,3,.5,5.6,1.2,7.8s1.8,3.7,2.9,4.7,2.7,1.8,4.7,2.4,3.7.9,5.1,1,3.5,0,6.3,0v5.7h-85v-5.7c2.8,0,5,0,6.3,0,1.4,0,3-.5,5.1-1,2-.6,3.6-1.4,4.7-2.4,1.1-1,2.1-2.6,2.9-4.7s1.2-4.7,1.2-7.8v-117.7c0-3-.5-5.6-1.2-7.8s-1.7-3.7-2.8-4.8-2.7-1.9-4.7-2.5-3.7-.9-5.1-1-3.4,0-6.2,0v-5.9h85v5.9c-2.8,0-4.8,0-6.2,0s-3,.5-5.1,1c-2,.6-3.6,1.4-4.7,2.5s-2,2.7-2.8,4.8-1.2,4.7-1.2,7.8v117.7h-.5.1ZM971.9,200.3c6.7,8.9,15.6,13.4,26.7,13.4v5.7h-71.8c-.5-6.7-3.2-14.3-8.1-23.1l-39.5-64.4v-6.2l46.3-52c2.6-3.5,3-6.1,1.2-7.7-1.8-1.6-4.7-2.4-8.9-2.4v-5.9h74.1v5.9c-16,0-30.9,6.8-44.5,20.3l-32.6,34.2.5.5c3.3,0,6.4,2.1,9.5,6l47.1,75.7h0Z"/>
            <path class="cls-10" d="M1419.2,57.9v5.9c-2.8,0-4.8,0-6.2,0s-3,.5-5.1,1c-2,.6-3.6,1.4-4.7,2.5-1.1,1.1-2.1,2.7-3,4.8s-1.4,4.7-1.4,7.8v142.2h-6.4l-116.5-102.1v77.5c0,3,.5,5.6,1.2,7.8.8,2.1,1.8,3.7,2.9,4.7,1.1,1,2.7,1.8,4.7,2.4,2,.6,3.7.9,5.1,1s3.5,0,6.3,0v5.7h-62.6v-5.7c2.8,0,5,0,6.3,0s3-.5,5.1-1c2-.6,3.6-1.4,4.7-2.4,1.1-1,2.1-2.6,2.9-4.7.8-2.1,1.2-4.7,1.2-7.8v-117.7c0-3-.5-5.6-1.2-7.8-.8-2.1-1.7-3.7-2.8-4.8s-2.7-1.9-4.7-2.5-3.7-.9-5.1-1-3.4,0-6.2,0v-5.9h38.3l108.1,94.9v-2.9c-2-3-3-6.1-3-9.1v-60.8c0-3-.5-5.6-1.4-7.8s-1.8-3.7-2.8-4.8-2.6-1.9-4.7-2.5c-2.1-.6-3.8-.9-5.2-1s-3.4,0-6.2,0v-5.9h62.4Z"/>
            <path class="cls-11" d="M1502.1,149.2c9.2-2.6,16.3-7.6,21.3-14.9,5-7.3,7.4-16.1,7.4-26.3,0-24.7-9.2-37-27.8-37s-8.7.6-12.7,1.6v.8c2.1,2.1,3.3,5.4,3.3,9.7v114.6c0,3,.5,5.6,1.2,7.8s1.8,3.7,2.9,4.7c1.1,1,2.7,1.8,4.7,2.4,2,.6,3.7.9,5.1,1s3.5,0,6.3,0v5.7h-85v-5.7c2.8,0,5,0,6.3,0s3-.5,5.1-1c2-.6,3.6-1.4,4.7-2.4,1.1-1,2.1-2.6,2.9-4.7s1.2-4.7,1.2-7.8v-117.7c0-3-.5-5.6-1.2-7.8s-1.7-3.7-2.8-4.8-2.7-1.9-4.7-2.5-3.7-.9-5.1-1c-1.4,0-3.4,0-6.2,0v-5.9h20.1c4.3,0,13.6-.2,28.2-.8,14.5-.6,25.8-.8,33.9-.8,44.2,0,66.3,15.2,66.3,45.8s-6.2,28.7-18.7,38.5-31.3,14.8-56.6,14.9v-6.5h0v.2Z"/>
            <path class="cls-4" d="M1970.3,219.5c-5.7,1.5-13.6,2.3-23.7,2.3s-22-1.6-30.8-4.7c-8.8-3.2-16.2-8-22.4-14.7s-11.4-14.3-15.6-23-8-19.4-11.5-32c-3.9.5-7.4.7-10.4.7v-6.2c12.2-3.3,20.9-7.7,26-13.2,5.2-5.5,7.8-13.4,7.8-23.7,0-22.8-9.6-34.2-28.9-34.2s-11.6.5-15.9,1.4v.8c2.1,2.1,3.3,5.4,3.3,9.7v114.9c0,3.8.5,7,1.5,9.4s2.6,3.9,4.7,4.8c2.1.9,3.9,1.5,5.4,1.7s3.6.3,6.4.3v5.7h-82.6v-5.7c2.8,0,5,0,6.3,0s3-.5,5.1-1c2-.6,3.6-1.4,4.7-2.4s2.1-2.6,2.9-4.7,1.2-4.7,1.2-7.8v-117.7c0-3-.5-5.6-1.2-7.8s-1.7-3.7-2.8-4.8c-1.1-1.1-2.7-1.9-4.7-2.5s-3.7-.9-5.1-1-3.4,0-6.2,0v-5.9h20.1c4.3,0,14.9-.2,31.8-.7s28.3-.7,34.2-.7c43.2,0,64.8,13.3,64.8,39.9s-3.4,18.9-10,26.8-15.8,13.9-27.4,17.9l.5,1.1c4.2,0,7,0,8.5.8s2.6,1.9,3.4,3.8c11.4,21.5,20.4,36.5,27.1,45,11.3,14.7,22,22,32.1,22s1.5,0,2-.2l-.6,5.7h0Z"/>
            <path class="cls-12" d="M2030.7,197.5c0,3,.5,5.6,1.2,7.8s1.8,3.7,2.9,4.7,2.7,1.8,4.7,2.4c2,.6,3.7.9,5.1,1s3.5,0,6.3,0v5.7h-85v-5.7c2.8,0,5,0,6.3,0,1.4,0,3-.5,5.1-1,2-.6,3.6-1.4,4.7-2.4s2.1-2.6,2.9-4.7,1.2-4.7,1.2-7.8v-117.7c0-3-.5-5.6-1.2-7.8s-1.7-3.7-2.8-4.8c-1.1-1.1-2.7-1.9-4.7-2.5s-3.7-.9-5.1-1-3.4,0-6.2,0v-5.9h85v5.9c-2.8,0-4.8,0-6.2,0s-3,.5-5.1,1c-2,.6-3.6,1.4-4.7,2.5s-2,2.7-2.8,4.8-1.2,4.7-1.2,7.8v117.7h-.5,0ZM2129.5,200.2c6.7,8.9,15.6,13.4,26.7,13.4v5.7h-71.8c-.5-6.7-3.2-14.3-8.1-23.1l-39.5-64.4v-6.2l46.3-52c2.6-3.5,3-6.1,1.2-7.7-1.8-1.6-4.7-2.4-8.9-2.4v-5.9h74.1v5.9c-16,0-30.9,6.8-44.5,20.3l-32.6,34.2.5.5c3.3,0,6.4,2.1,9.5,6l47.1,75.7h0Z"/>
          </g>
          <g>
            <path class="cls-5" d="M1259.1,305.9v5.7c-11.9,0-21.2,5.3-28.1,15.7l-34.5,58.4v56.3c0,3,.4,5.5,1.4,7.5.8,2.1,1.9,3.6,3,4.6,1.1,1,2.6,1.8,4.6,2.3s3.6.8,4.9,1c1.4,0,3.4,0,6.2,0v5.6h-82.8v-5.6c2.7,0,4.8,0,6.2,0s3-.4,4.9-1c1.9-.5,3.5-1.4,4.6-2.3,1.1-1,2.1-2.5,2.9-4.6.8-2.1,1.2-4.6,1.2-7.5v-49.2l-39.6-66.5c-4.1-6.4-7.5-10.5-10.3-12.2-2.9-1.6-7.1-2.5-12.9-2.5v-5.7h83v5.7c-1.9,0-3.5,0-4.9.3-1.4,0-3,.4-4.6,1-1.6.5-2.9,1.4-3.7,2.5-.8,1.1-1.2,2.6-1,4.6.3,1.9,1.1,4.4,2.7,7.3l25.3,41.9.8-1.1c-1-2.5-.3-5.6,1.9-9.7l17.5-31.1c2.3-3.3,3.6-6,4-8.3s-.3-4-1.8-4.9c-1.5-1-3.2-1.6-4.9-1.9-1.8-.3-4.1-.5-6.9-.5v-5.7l60.8.4.2-.2Z"/>
            <path class="cls-7" d="M1384.6,442.5c2.9,6.7,5.6,10.8,8.3,12.3s6.9,2.3,12.5,2.3v5.6h-76.3v-5.6c1.6,0,3,0,3.8,0s1.9-.3,3-.7c1.1-.3,1.9-.8,2.2-1.6.3-.8.4-1.9.3-3.4s-.5-3.4-1.4-5.7l-4.5-11.6c-1.4-4.2-2.1-7.7-1.9-10.5l-.3-.8h-48.6l-.3.8c.4,1.4-.4,4.6-2.6,9.9l-4.7,12.3c-.3,1.9-.7,3.6-1,4.9-.3,1.4,0,2.5,1.2,3.3,1.1.8,1.9,1.5,2.6,1.9s1.9.8,3.6,1,3,.3,4,.3h3.8v5.6h-58.7v-5.6c2.9,0,5.1,0,6.6-.3,1.5-.3,3.4-.8,5.6-1.6s4.2-2.5,5.8-4.6c1.6-2.2,3.2-5.3,4.5-9.1l56-136.5h19.3l56.7,137.7h.3v-.3ZM1325.6,405.4l-.3-.7c-1.6-1.9-3.4-4.9-5.3-9.2l-12.5-35.3-14,35.3c-1.9,4.6-3.6,7.7-4.9,9.2l-.3.7h37.2Z"/>
            <path class="cls-6" d="M1477.9,394.3c9-2.5,15.9-7.4,20.8-14.5,4.8-7.1,7.3-15.7,7.3-25.6,0-24.1-9-36-27.1-36s-8.5.5-12.4,1.5v.8c2.1,2.1,3.2,5.3,3.2,9.4v111.7c0,3,.4,5.5,1.2,7.5.8,2.1,1.8,3.6,2.9,4.6,1.1,1,2.6,1.8,4.6,2.3,1.9.5,3.6.8,4.9,1,1.4,0,3.4,0,6.2,0v5.6h-82.8v-5.6c2.7,0,4.8,0,6.2,0s3-.4,4.9-1c1.9-.5,3.5-1.4,4.6-2.3,1.1-1,2.1-2.5,2.9-4.6.8-2.1,1.2-4.6,1.2-7.5v-114.6c0-3-.4-5.5-1.2-7.5-.8-2.1-1.6-3.6-2.7-4.7s-2.6-1.9-4.6-2.5c-1.9-.5-3.6-.8-4.9-1-1.4,0-3.3,0-6,0v-5.7h19.6c4.2,0,13.3-.3,27.4-.8s25.2-.8,33-.8c43,0,64.6,14.8,64.6,44.6s-6,28-18.2,37.5c-12.2,9.6-30.5,14.4-55.2,14.5v-6.4h0l-.3.2Z"/>
            <path class="cls-8" d="M1642.1,311.1c-2.7,0-4.7,0-6,0-1.4,0-3,.4-4.9,1s-3.5,1.4-4.6,2.5-1.9,2.6-2.7,4.7-1.2,4.6-1.2,7.5v114.6c0,3,.4,5.5,1.2,7.5.8,2.1,1.8,3.6,2.9,4.6,1.1,1,2.6,1.8,4.6,2.3,1.9.5,3.6.8,4.9,1,1.4,0,3.4,0,6.2,0v5.6h-82.8v-5.6c2.7,0,4.8,0,6.2,0s3-.4,4.9-1c1.9-.5,3.5-1.4,4.6-2.3,1.1-1,2.1-2.5,2.9-4.6.8-2.1,1.2-4.6,1.2-7.5v-114.6c0-3-.4-5.5-1.2-7.5-.8-2.1-1.6-3.6-2.7-4.7s-2.6-1.9-4.6-2.5c-1.9-.5-3.6-.8-4.9-1-1.4,0-3.3,0-6,0v-5.7h82.8v5.7h-.7Z"/>
          </g>
        </g>
      </g>
    </g>
  </g>
</svg>