<?xml version="1.0" encoding="UTF-8"?>
<svg xmlns="http://www.w3.org/2000/svg" version="1.1" viewBox="0 0 877.7 233.8">
  <defs>
    <style>
      .cls-1 {
        fill: #fff;
      }
      .cls-2 {
        fill: #1867b5;
      }
      .cls-3 {
        fill: #b22e34;
      }
    </style>
  </defs>
  <!-- Generator: Adobe Illustrator 28.6.0, SVG Export Plug-In . SVG Version: 1.2.0 Build 709)  -->
  <g>
    <g id="katman_1">
      <g id="katman_1-2" data-name="katman_1">
        <g>
          <g>
            <path class="cls-3" d="M352.7,58.4h-57v27h53.7v22.4h-53.7v40.5h-26.5V35.3h83.4v23.1h.1Z"/>
            <path class="cls-3" d="M452.4,148.3l-8.4-20.3h-55.7l-8.4,20.3h-28.2l50.7-113h28.2l50.4,113h-28.6ZM416.4,60.7l-18.6,44.5h36.8l-18.2-44.5h0Z"/>
            <path class="cls-3" d="M593,35.3h23.7v113h-26.3v-70.7l-33.2,40.7h-5.2l-33.6-40.8v70.9h-26.3V35.3h23.7l38.6,48.1s38.6-48.1,38.6-48.1Z"/>
            <path class="cls-3" d="M644.6,22.4c-2.6-2.5-4-5.6-4-9.4s1.3-7,4-9.4C647.2,1.2,650.6,0,654.7,0s7.5,1.2,10.1,3.6c2.6,2.4,4,5.6,4,9.4s-1.3,6.9-4,9.4c-2.6,2.5-6,3.7-10.1,3.7s-7.5-1.2-10.1-3.7ZM641.3,35.3h26.5v113h-26.5V35.3Z"/>
            <path class="cls-3" d="M692.4,35.3h26.5v89.1h56.8v23.9h-83.3V35.3Z"/>
            <path class="cls-3" d="M877.7,35.3l-46,68.8v44.2h-26.3v-44.2l-44.4-68.8h31l26.8,43.9,27.4-43.9s31.5,0,31.5,0Z"/>
          </g>
          <g>
            <path class="cls-3" d="M122.9,0c57,1.7,107.2,49.5,111.3,106.9,5.3,53.5-29.7,106.6-81.4,122.2-3.5,1.1-7.1,2.2-10.7,2.8-2,.3-1.2-2.3-1.4-3.5v-45.7c-.3-3.8,2.3-2.9,5.1-3h67c.9,0,2.4,0,2.9-.8.5-.9.5-1.9.5-3.1v-23.3c0-2.3-1-3.1-3.2-3h-69.1c-3.1.2-3.1-1.4-3-4v-31.2c-.2-3.5.7-4,4.1-3.8h72.6c1.9,0,3.4-.6,3.2-2.7.2-8.3,0-16.5,0-24.8.3-3.6-1.7-3.9-4.9-3.8h-105.9c-1.4,0-3.9-.3-4.7,1-1.1,50.3,0,101-.4,151.4.2,1.5-.4,2.5-1.9,2.2-6.2-.7-12.4-2-18.4-3.7-1.2-.3-2-1.1-1.9-2.4,1.4-73.9-2.7-150.2,1.4-222.9C96.6.8,110-.2,122.8,0h0Z"/>
            <path class="cls-3" d="M0,112.1c.5-1.3.3-2.7.5-4.1,1.5-19.1,7.2-36.7,17.3-53,.1-.2.2-.3.5-.6v124.9c-1.9-2.9-3.4-5.6-4.9-8.4-6.4-12.2-10.4-25.2-12.2-38.8-.4-3.2-.7-6.4-.8-9.6,0-.3.2-.7-.2-.9v-2.1c.3-1.8.3-3.6,0-5.4v-2.1h-.2Z"/>
            <path class="cls-3" d="M0,114.1c.3,1.8.3,3.6,0,5.4v-5.4Z"/>
            <path class="cls-3" d="M65.4,221.9c-3.9-1.9-7.5-4-11-6.2-.3-.2-.5-.5-.4-.8V19.9c0-1.2.3-2,1.4-2.6,3.3-1.9,6.5-3.8,10-5.6v210.2Z"/>
            <path class="cls-3" d="M39.8,28.9v175.9c-1.7-1.5-3.1-2.9-4.6-4.2-2.2-2.1-4.2-4.4-6.2-6.6-.6-.7-.8-1.3-.8-2.2V42c0-.9.2-1.6.9-2.3,3.1-3.5,6.4-6.9,9.9-10,.2-.2.4-.4.8-.7h0Z"/>
          </g>
          <rect class="cls-2" x="269.2" y="158.7" width="608.5" height="75.1"/>
          <path class="cls-1" d="M310.7,193.3v11.9c-1.3,1.4-3,2.6-5,3.3-2,.8-4.1,1.2-6.5,1.2s-5.3-.6-7.4-1.7c-2.1-1.1-3.8-2.8-4.9-4.9s-1.7-4.6-1.7-7.4.6-5.1,1.8-7.3,2.9-3.8,5.1-5c2.2-1.2,4.7-1.8,7.6-1.8s3.9.4,5.6,1.1c1.7.7,3.2,1.8,4.6,3.2l-3.8,3.7c-.8-.8-1.8-1.5-3-1.9-1.1-.5-2.3-.7-3.5-.7-2.6,0-4.6.8-6.1,2.3-1.5,1.5-2.2,3.6-2.2,6.3s.3,3.2,1,4.5c.7,1.3,1.6,2.3,2.8,3s2.6,1.1,4.2,1.1c2.5,0,4.5-.6,6-1.9v-4.1h-7.2v-5h12.5Z"/>
          <path class="cls-1" d="M315.3,182.4h6.2v21h13.4v5.6h-19.7v-26.7Z"/>
          <path class="cls-1" d="M343.4,208c-2.2-1.2-3.8-2.8-5-4.9s-1.8-4.6-1.8-7.4.6-5.2,1.8-7.4c1.2-2.1,2.9-3.7,5-4.9,2.2-1.2,4.7-1.7,7.6-1.7s5.4.6,7.6,1.7c2.2,1.2,3.8,2.8,5,4.9,1.2,2.1,1.8,4.6,1.8,7.4s-.6,5.2-1.8,7.4c-1.2,2.1-2.9,3.7-5,4.9-2.2,1.2-4.7,1.7-7.6,1.7s-5.4-.6-7.6-1.7ZM355.2,203.1c1.2-.7,2.2-1.7,2.9-3,.7-1.3,1-2.7,1-4.4s-.3-3.1-1-4.4c-.7-1.3-1.6-2.3-2.9-3-1.2-.7-2.6-1-4.2-1s-3,.3-4.2,1-2.2,1.7-2.8,3c-.7,1.3-1,2.7-1,4.4s.3,3.1,1,4.4c.7,1.3,1.6,2.3,2.8,3,1.2.7,2.6,1,4.2,1s3-.3,4.2-1Z"/>
          <path class="cls-1" d="M391.7,197.7c.8,1.2,1.1,2.5,1.1,3.9,0,2.3-.9,4.2-2.7,5.5-1.8,1.3-4.3,2-7.4,2h-13.2v-26.7h13.2c2.9,0,5.1.6,6.8,1.9,1.7,1.3,2.5,3,2.5,5.2s-.3,2.4-.9,3.4c-.6,1-1.4,1.7-2.5,2.2,1.3.6,2.3,1.4,3.1,2.6ZM375.7,187.5v5.3h7.2c1,0,1.8-.2,2.3-.7.5-.5.8-1.1.8-1.9s-.3-1.5-.8-2-1.3-.7-2.3-.7h-7.2ZM385.8,203c.6-.5.9-1.3.9-2.2s-.3-1.7-.9-2.2c-.6-.5-1.5-.8-2.6-.8h-7.5v6h7.5c1.1,0,2-.3,2.6-.8Z"/>
          <path class="cls-1" d="M417.6,209.1l-2-4.8h-13.1l-2,4.8h-6.7l12-26.7h6.7l11.9,26.7h-6.7ZM409.1,188.4l-4.4,10.5h8.7l-4.3-10.5Z"/>
          <path class="cls-1" d="M426.9,182.4h6.2v21h13.4v5.6h-19.7v-26.7Z"/>
          <path class="cls-1" d="M482.2,182.4l-10.9,16.2v10.4h-6.2v-10.4l-10.5-16.2h7.3l6.3,10.4,6.5-10.4h7.4Z"/>
          <path class="cls-1" d="M502.4,209.1l-2-4.8h-13.1l-2,4.8h-6.7l12-26.7h6.7l11.9,26.7h-6.7ZM493.9,188.4l-4.4,10.5h8.7l-4.3-10.5Z"/>
          <path class="cls-1" d="M529.9,183.5c1.5.8,2.7,1.9,3.6,3.3.8,1.4,1.3,3.1,1.3,5.1s-.4,3.6-1.3,5.1c-.8,1.4-2,2.6-3.6,3.3-1.5.8-3.3,1.2-5.4,1.2h-6.5v7.5h-6.2v-26.7h12.8c2.1,0,3.9.4,5.4,1.2ZM527.4,195c.8-.7,1.2-1.7,1.2-3s-.4-2.2-1.2-3c-.8-.7-1.8-1.1-3.1-1.1h-6.2v8.2h6.2c1.3,0,2.4-.4,3.1-1.1Z"/>
          <path class="cls-1" d="M538.4,182.4h6.2v26.7h-6.2v-26.7Z"/>
          <path class="cls-1" d="M577.5,184c2.1,1.1,3.7,2.6,4.8,4.7s1.7,4.4,1.7,7-.6,5-1.7,7-2.7,3.6-4.8,4.7c-2.1,1.1-4.5,1.6-7.2,1.6h-10.9v-26.7h10.9c2.7,0,5.1.5,7.2,1.6ZM575.7,201.5c1.4-1.4,2.1-3.3,2.1-5.8s-.3-3-.9-4.2c-.6-1.2-1.5-2.1-2.6-2.7s-2.4-1-3.9-1h-4.7v15.8h4.7c2.2,0,4-.7,5.4-2.1Z"/>
          <path class="cls-1" d="M588.3,182.4h6.2v26.7h-6.2v-26.7Z"/>
          <path class="cls-1" d="M618.9,206.9c-1.7,1.5-4,2.4-6.9,2.7l-.4,1c1.1.1,2.1.5,2.7,1.2.7.7,1,1.6,1,2.7s-.5,2.2-1.4,2.9c-1,.7-2.2,1.1-3.8,1.1s-2-.2-2.9-.5c-.9-.3-1.6-.8-2.2-1.5l2-2.3c.8.7,1.8,1,2.8,1s1-.1,1.3-.3.5-.5.5-.8-.2-.7-.5-.9c-.3-.2-.7-.3-1.3-.3s-1.1,0-1.3.3l-1.1-1.1.9-2.4c-1.8-.2-3.5-.6-5.1-1.2-1.6-.6-3-1.4-4.3-2.4l3.2-4.5c2.4,1.9,5.1,2.8,8.3,2.8s2.8-.3,3.8-.8c.9-.5,1.4-1.3,1.4-2.2s-.4-1.5-1.3-2c-.9-.5-2.2-.8-4.1-1-3.6-.4-6.3-1.3-8-2.6-1.7-1.3-2.5-3.1-2.5-5.6s.5-3.1,1.4-4.3c.9-1.2,2.2-2.2,3.8-2.9,1.7-.7,3.6-1,5.7-1s3.7.3,5.4.8,3.3,1.3,4.7,2.2l-2.9,4.4c-2.1-1.4-4.4-2.2-6.9-2.2s-2.8.3-3.7.8c-.9.5-1.4,1.2-1.4,2.1s.4,1.5,1.2,1.9c.8.5,2.1.8,4,1,3.6.4,6.3,1.3,8.1,2.7,1.8,1.4,2.7,3.3,2.7,5.7s-.9,4.2-2.6,5.7Z"/>
          <path class="cls-1" d="M653.7,182.4v5.4h-8.2v21.2h-6.2v-21.2h-8.1v-5.4h22.5Z"/>
          <path class="cls-1" d="M657.9,179.3c-.6-.6-.9-1.3-.9-2.2s.3-1.7.9-2.2c.6-.6,1.4-.9,2.4-.9s1.8.3,2.4.9c.6.6.9,1.3.9,2.2s-.3,1.6-.9,2.2c-.6.6-1.4.9-2.4.9s-1.8-.3-2.4-.9ZM657.1,182.4h6.2v26.7h-6.2v-26.7Z"/>
          <path class="cls-1" d="M674.5,207.9c-2.2-1.2-3.8-2.8-5-4.9-1.2-2.1-1.8-4.5-1.8-7.3s.6-5.2,1.8-7.3c1.2-2.1,2.9-3.8,5-4.9,2.2-1.2,4.6-1.7,7.4-1.7,3.9,0,7.3,1.4,10.1,4.2l-3.8,3.8c-1.7-1.6-3.7-2.4-6.1-2.4s-3,.3-4.2,1c-1.2.7-2.2,1.7-2.9,3-.7,1.3-1,2.7-1,4.4s.3,3.1,1,4.4c.7,1.3,1.6,2.3,2.9,3,1.2.7,2.6,1,4.2,1s2.5-.2,3.7-.7,2.2-1.1,3-2l3.7,4.1c-2.9,2.8-6.3,4.2-10.4,4.2s-5.4-.6-7.6-1.8Z"/>
          <path class="cls-1" d="M695.4,208.5c-.6-.6-1-1.4-1-2.3s.3-1.7,1-2.3c.6-.6,1.5-.9,2.5-.9s1.8.3,2.5.9c.6.6,1,1.4,1,2.3s-.3,1.7-1,2.3c-.6.6-1.5.9-2.5.9s-1.8-.3-2.5-.9Z"/>
          <path class="cls-1" d="M714.8,182.4h6.2v21h13.4v5.6h-19.7v-26.7Z"/>
          <path class="cls-1" d="M754.9,182.4v5.4h-8.2v21.2h-6.2v-21.2h-8.1v-5.4h22.5Z"/>
          <path class="cls-1" d="M776.5,184c2.1,1.1,3.7,2.6,4.8,4.7s1.7,4.4,1.7,7-.6,5-1.7,7-2.7,3.6-4.8,4.7c-2.1,1.1-4.5,1.6-7.2,1.6h-10.9v-26.7h10.9c2.7,0,5.1.5,7.2,1.6ZM774.7,201.5c1.4-1.4,2.1-3.3,2.1-5.8s-.3-3-.9-4.2c-.6-1.2-1.5-2.1-2.6-2.7s-2.4-1-3.9-1h-4.7v15.8h4.7c2.2,0,4-.7,5.4-2.1Z"/>
          <path class="cls-1" d="M785.8,208.5c-.6-.6-1-1.4-1-2.3s.3-1.7,1-2.3c.6-.6,1.5-.9,2.5-.9s1.8.3,2.5.9c.6.6,1,1.4,1,2.3s-.3,1.7-1,2.3c-.6.6-1.5.9-2.5.9s-1.8-.3-2.5-.9Z"/>
          <path class="cls-1" d="M823.7,206.9c-1.7,1.5-4,2.4-6.9,2.7l-.4,1c1.1.1,2.1.5,2.7,1.2.7.7,1,1.6,1,2.7s-.5,2.2-1.4,2.9c-1,.7-2.2,1.1-3.8,1.1s-2-.2-2.9-.5c-.9-.3-1.6-.8-2.2-1.5l2-2.3c.8.7,1.8,1,2.8,1s1-.1,1.3-.3.5-.5.5-.8-.2-.7-.5-.9c-.3-.2-.7-.3-1.3-.3s-1.1,0-1.3.3l-1.1-1.1.9-2.4c-1.8-.2-3.5-.6-5.1-1.2-1.6-.6-3-1.4-4.3-2.4l3.2-4.5c2.4,1.9,5.1,2.8,8.3,2.8s2.8-.3,3.8-.8c.9-.5,1.4-1.3,1.4-2.2s-.4-1.5-1.3-2c-.9-.5-2.2-.8-4.1-1-3.6-.4-6.3-1.3-8-2.6-1.7-1.3-2.5-3.1-2.5-5.6s.5-3.1,1.4-4.3c.9-1.2,2.2-2.2,3.8-2.9,1.7-.7,3.6-1,5.7-1s3.7.3,5.4.8,3.3,1.3,4.7,2.2l-2.9,4.4c-2.1-1.4-4.4-2.2-6.9-2.2s-2.8.3-3.7.8c-.9.5-1.4,1.2-1.4,2.1s.4,1.5,1.2,1.9c.8.5,2.1.8,4,1,3.6.4,6.3,1.3,8.1,2.7,1.8,1.4,2.7,3.3,2.7,5.7s-.9,4.2-2.6,5.7Z"/>
          <path class="cls-1" d="M850.3,182.4v5.4h-8.2v21.2h-6.2v-21.2h-8.1v-5.4h22.5Z"/>
          <path class="cls-1" d="M854.6,179.3c-.6-.6-.9-1.3-.9-2.2s.3-1.7.9-2.2c.6-.6,1.4-.9,2.4-.9s1.8.3,2.4.9c.6.6.9,1.3.9,2.2s-.3,1.6-.9,2.2c-.6.6-1.4.9-2.4.9s-1.8-.3-2.4-.9ZM853.8,182.4h6.2v26.7h-6.2v-26.7Z"/>
        </g>
      </g>
    </g>
  </g>
</svg>