<?xml version="1.0" encoding="UTF-8"?>
<svg id="katman_1" xmlns="http://www.w3.org/2000/svg" version="1.1" xmlns:xlink="http://www.w3.org/1999/xlink" viewBox="0 0 244 60">
  <!-- Generator: Adobe Illustrator 30.2.1, SVG Export Plug-In . SVG Version: 2.1.1 Build 1)  -->
  <defs>
    <style>
      .st0 {
        fill: #45565e;
      }

      .st1 {
        fill: none;
      }

      .st2 {
        clip-path: url(#clippath);
      }
    </style>
    <clipPath id="clippath">
      <rect class="st1" y="0" width="243.85" height="60"/>
    </clipPath>
  </defs>
  <g class="st2">
    <g>
      <path class="st0" d="M11.96,46.66c.3-.12.62-.21.94-.25,1.71,0,2.48-1,2.76-2.49.83-4.97,1.62-9.95,2.39-14.92.94-6.05,1.86-12.1,2.79-18.15.13-.48.31-.93.55-1.37l.58-.13,7.09,14.35c2.35,4.77,4.69,9.53,7.25,14.72l14.07-29.02.62.07c.26.64.47,1.29.62,1.96,1.51,10.02,3.01,20.03,4.49,30.05.62,4.02,1.12,4.53,5.14,5.08.27.02.53.14.71.35h-11.54c.08-1.33.08-2.67,0-4-.88-6.74-1.83-13.49-3.19-20.38l-12.04,24.53-.8.04-11.98-23.92h-.35c-.33,2.29-.66,4.59-.97,6.88-.52,3.92-1,7.83-1.55,11.75-.41,2.95-.58,4.59,3.25,4.58.2,0,.4.17.56.51h-11.35l-.02-.26Z"/>
      <path class="st0" d="M116.01,26.66c.58-.68,1.13-1.39,1.74-2.05,3.3-3.57,6.63-7.13,9.93-10.72,1.03-1.12,1.52-2.34-.62-3.56h12.15l.09.25c-.37.1-.74.22-1.1.37-1.95.91-4.29,1.37-5.73,2.77-4.17,3.91-7.99,8.2-12.12,12.53,1.77,1.95,3.82,4.25,5.92,6.5,4.57,4.9,9.12,9.84,13.78,14.66,3.32,3.44,6.58,7.07,11.79,7.79-5.49.29-11.01,1.35-15.33-3.64-5.59-6.45-11.44-12.68-17.16-19.01-1.17-1.29-2.3-2.63-3.72-4.27-.07.96-.14,1.51-.14,2.05.04,4.07.08,8.14.17,12.21.07,3.26.4,3.56,3.63,3.88.19.01.37.06.54.15.16.09.31.22.41.37h-14.89c.45-.27.62-.44.79-.47,2.88-.5,3.29-.88,3.39-3.83.11-3.55.12-7.1.12-10.66,0-5.62-.02-11.24-.06-16.85-.03-3.49-.43-3.88-3.88-4.26-.16,0-.31-.05-.45-.13s-.26-.18-.35-.31h14.31c0,.12-.04.28-.07.29-3.19.58-3.5.66-3.59,4.44-.07,3.33-.09,6.65-.11,9.95.02.43.08.86.17,1.29l.41.29Z"/>
      <path class="st0" d="M143.53,10.66c.31-.29.34-.35.38-.35,5.71.09,11.47-.27,17.12.39,6.2.73,8.43,7.06,4.67,12.09-.95,1.14-1.96,2.24-3.03,3.28l1.78.9c3.87,2.01,6.78,4.77,6.89,9.47.14,5.26-3.51,9.49-9.07,10.4-2.26.28-4.54.39-6.83.33-3.15.04-6.29,0-9.44-.04-.53,0-1.06-.11-1.79-.18.31-.27.38-.39.48-.41,3.3-.83,3.59-.92,3.63-4.35.12-9.4.09-18.8.04-28.21,0-2.01-.78-2.66-2.82-2.99l-2.02-.32ZM154.18,27.94v1.8c0,4.18,0,8.35.09,12.52.05.73.36,1.41.88,1.92,3.1,2.7,9.12.85,10.12-3.15.95-3.82-.12-7.24-2.54-10.24-2.19-2.71-5.13-3.31-8.54-2.85ZM154.18,18.87c0,1.86-.05,3.78.03,5.66.01.26.08.51.21.74.12.23.3.42.51.57.72.28,1.49.41,2.26.37.77-.04,1.53-.24,2.22-.59.69-.35,1.29-.85,1.78-1.45.48-.6.84-1.3,1.03-2.05.27-1.11.36-2.25.27-3.39-.37-4.13-3.06-6.74-6.63-6.68-1.2,0-1.78.37-1.71,1.68.07,1.7.03,3.42.03,5.13Z"/>
      <path class="st0" d="M82.58,12.88c-.51,1.6-1.04,3.21-1.53,4.81-2.32,7.46-4.64,14.94-6.94,22.44-.37,1.14-.62,2.31-.76,3.51-.19,1.95.31,2.44,2.25,2.64.32,0,.62.09.96.13v.42h-12.5c.22-.26.32-.48.42-.48,3.28,0,4.7-2.04,5.59-4.84,3.03-9.32,6.12-18.68,9.18-28.03,1.21-3.69,2.41-7.39,3.64-11.08.25-.75.7-1.41,1.29-1.93.39.88.86,1.73,1.15,2.64,3.92,11.83,7.83,23.66,11.72,35.49.32.98.68,1.95,1.06,2.9,1.1,2.73,2.48,5.13,6.09,5.1-4.17.84-8.31.35-12.69.11,1.57-.83,1.16-1.91.81-3.04-2.99-9.73-5.96-19.46-8.91-29.21-.16-.53-.35-1.04-.52-1.57l-.32-.02Z"/>
      <path class="st0" d="M169.07,46.29c4.08.31,5.22-2.49,6.2-5.53,4.1-12.56,8.21-25.11,12.33-37.65.29-.89.69-1.74,1.04-2.6h.56c.36.86.78,1.69,1.07,2.57,3.91,11.83,7.8,23.66,11.69,35.51.18.54.37,1.08.58,1.62,1.24,3.11,2.2,6.47,6.68,6.4-4.26.91-8.39.37-12.21.31.12-1.06.51-2.03.29-2.82-2.98-10.09-6.05-20.15-9.11-30.21-.09-.32-.26-.62-.62-1.42-.48,1.59-.84,2.75-1.2,3.92-2.61,8.59-5.23,17.16-7.86,25.73-.16.55-.26,1.11-.28,1.68-.09,1.82.38,2.31,2.23,2.49.33.03.66.08.99.12v.42h-12.31l-.07-.53Z"/>
      <path class="st0" d="M220.22,50.23c1.41.44,2.8.97,4.14,1.57.62.26,1.11.75,1.4,1.35.28.61.33,1.3.14,1.94-.77,3.05-6.45,5.49-9.57,3.94,2.43-.81,5.54-.76,5.33-4.35-.09-1.62-.76-2.04-4.81-3.47l3.93-3.11c-2.25-.3-4.23-.44-6.15-.87-2.99-.66-2.99-.74-2.93-3.73.04-1.77.17-3.54.28-5.31,0-.25.17-.48.58-.72.14.75.27,1.5.41,2.25.23,1.2.74,2.33,1.51,3.28.76.95,1.75,1.71,2.87,2.19,1.12.48,2.35.68,3.56.58s2.39-.51,3.42-1.17c1.24-.76,2.15-1.96,2.53-3.37.38-1.41.21-2.91-.49-4.19-.97-1.67-2.21-3.18-3.66-4.46-1.86-1.82-4.07-3.35-5.99-5.14-2.1-1.95-3.63-4.31-3.96-7.24-.62-5.28,2.48-9.52,7.88-10.24,2.94-.39,6,.12,9.01.24.99.04,1.35.58,1.28,1.6-.11,1.54-.04,3.11-.09,4.64,0,.28-.05.56-.16.82-.11.26-.26.49-.46.69-.11-.29-.2-.59-.27-.89-.21-1.1-.68-2.13-1.38-3.01-.7-.87-1.6-1.56-2.63-2-1.03-.44-2.15-.62-3.26-.53-1.11.09-2.19.46-3.13,1.07-.58.38-1.07.87-1.45,1.45-.38.58-.63,1.23-.74,1.91-.11.68-.08,1.38.09,2.05.17.67.48,1.3.91,1.84,1.24,1.6,2.92,2.88,4.46,4.24,1.76,1.55,3.67,2.95,5.35,4.57,1.2,1.1,2.16,2.45,2.8,3.95.64,1.5.96,3.12.93,4.75-.09,4.35-2.18,7.28-5.99,9.25-1.87.99-3.6,2.3-5.67,3.62Z"/>
    </g>
  </g>
</svg>